<svg width="677" height="900" viewBox="0 0 677 900" fill="none" xmlns="http://www.w3.org/2000/svg">
<path d="M27.4651 197.806C27.314 196.598 27.1931 196.477 25.9541 196.296C27.1629 196.144 27.2837 196.024 27.4651 194.785C27.6161 195.994 27.737 196.114 28.976 196.296C27.7672 196.447 27.6464 196.598 27.4651 197.806Z" fill="white" fill-opacity="0.1"/>
<path d="M40.7817 31.33C40.6306 30.1218 40.5098 30.0011 39.2708 29.8198C40.4795 29.6686 40.6004 29.5479 40.7817 28.3096C40.9328 29.5177 41.0537 29.6385 42.2927 29.8198C41.0839 29.9707 40.963 30.1218 40.7817 31.33Z" fill="white" fill-opacity="0.1"/>
<path d="M126.229 136.383C126.078 135.174 125.957 135.054 124.718 134.872C125.927 134.721 126.048 134.6 126.229 133.362C126.38 134.57 126.501 134.691 127.74 134.872C126.531 135.023 126.411 135.174 126.229 136.383Z" fill="white" fill-opacity="0.1"/>
<path d="M217.951 45.703C217.951 46.3201 217.45 46.8205 216.832 46.8205C216.215 46.8205 215.714 46.3201 215.714 45.703C215.714 45.0857 216.215 44.5854 216.832 44.5854C217.45 44.5854 217.951 45.0857 217.951 45.703Z" fill="white" fill-opacity="0.1"/>
<path d="M63.8953 96.2196C63.8953 96.8367 63.3946 97.3371 62.777 97.3371C62.1597 97.3371 61.6589 96.8367 61.6589 96.2196C61.6589 95.6023 62.1597 95.1021 62.777 95.1021C63.3946 95.1021 63.8953 95.6023 63.8953 96.2196Z" fill="white" fill-opacity="0.1"/>
<path d="M69.2498 199.583C69.2498 200.2 68.7493 200.7 68.1317 200.7C67.5144 200.7 67.0137 200.2 67.0137 199.583C67.0137 198.966 67.5144 198.465 68.1317 198.465C68.7493 198.465 69.2498 198.966 69.2498 199.583Z" fill="white" fill-opacity="0.1"/>
<path d="M84.7237 139.287C84.7237 139.904 84.2232 140.405 83.6056 140.405C82.988 140.405 82.4875 139.904 82.4875 139.287C82.4875 138.67 82.988 138.17 83.6056 138.17C84.2232 138.17 84.7237 138.67 84.7237 139.287Z" fill="white" fill-opacity="0.1"/>
<path d="M285.332 29.1236C284.553 29.9019 283.29 29.9019 282.511 29.1236C281.733 28.345 281.733 27.0828 282.511 26.3044C283.29 25.5258 284.553 25.5258 285.332 26.3044C286.111 27.0828 286.111 28.345 285.332 29.1236Z" fill="white" fill-opacity="0.15"/>
<path d="M166.904 96.3797C166.904 96.9968 166.403 97.4973 165.786 97.4973C165.168 97.4973 164.668 96.9968 164.668 96.3797C164.668 95.7624 165.168 95.2622 165.786 95.2622C166.403 95.2622 166.904 95.7624 166.904 96.3797Z" fill="white" fill-opacity="0.15"/>
<path d="M104.405 22.0825C104.254 20.8743 104.133 20.7535 102.894 20.5722C104.103 20.4211 104.224 20.3003 104.405 19.062C104.556 20.2702 104.677 20.391 105.916 20.5722C104.707 20.7231 104.586 20.8743 104.405 22.0825Z" fill="white" fill-opacity="0.1"/>
<path d="M133.196 100.131C133.044 98.9226 132.924 98.8018 131.685 98.6206C132.893 98.4694 133.014 98.3487 133.196 97.1104C133.347 98.3185 133.468 98.4393 134.706 98.6206C133.498 98.7715 133.377 98.9226 133.196 100.131Z" fill="white" fill-opacity="0.1"/>
<path d="M454.223 402.39C454.374 403.598 454.495 403.719 455.734 403.9C454.525 404.051 454.404 404.172 454.223 405.41C454.072 404.202 453.951 404.081 452.712 403.9C453.921 403.749 454.042 403.598 454.223 402.39Z" fill="white" fill-opacity="0.1"/>
<path d="M537.821 158.605C537.972 159.813 538.093 159.934 539.332 160.115C538.123 160.266 538.002 160.387 537.821 161.625C537.67 160.417 537.549 160.296 536.31 160.115C537.519 159.964 537.64 159.813 537.821 158.605Z" fill="white" fill-opacity="0.1"/>
<path d="M524.504 325.08C524.656 326.288 524.776 326.409 526.015 326.59C524.807 326.742 524.686 326.862 524.504 328.101C524.353 326.892 524.232 326.772 522.993 326.59C524.202 326.439 524.323 326.288 524.504 325.08Z" fill="white" fill-opacity="0.1"/>
<path d="M439.057 220.028C439.208 221.236 439.329 221.357 440.568 221.538C439.359 221.689 439.238 221.81 439.057 223.048C438.906 221.84 438.785 221.719 437.546 221.538C438.755 221.387 438.876 221.236 439.057 220.028Z" fill="white" fill-opacity="0.1"/>
<path d="M563.05 404.293C563.05 403.676 563.55 403.175 564.168 403.175C564.786 403.175 565.286 403.676 565.286 404.293C565.286 404.91 564.786 405.41 564.168 405.41C563.55 405.41 563.05 404.91 563.05 404.293Z" fill="white" fill-opacity="0.1"/>
<path d="M347.335 310.707C347.335 310.09 347.836 309.59 348.454 309.59C349.071 309.59 349.572 310.09 349.572 310.707C349.572 311.325 349.071 311.825 348.454 311.825C347.836 311.825 347.335 311.325 347.335 310.707Z" fill="white" fill-opacity="0.1"/>
<path d="M501.391 260.191C501.391 259.573 501.892 259.073 502.509 259.073C503.126 259.073 503.627 259.573 503.627 260.191C503.627 260.808 503.126 261.308 502.509 261.308C501.892 261.308 501.391 260.808 501.391 260.191Z" fill="white" fill-opacity="0.1"/>
<path d="M496.036 156.828C496.036 156.21 496.537 155.71 497.154 155.71C497.772 155.71 498.272 156.21 498.272 156.828C498.272 157.445 497.772 157.945 497.154 157.945C496.537 157.945 496.036 157.445 496.036 156.828Z" fill="white" fill-opacity="0.1"/>
<path d="M480.563 217.123C480.563 216.506 481.063 216.006 481.681 216.006C482.298 216.006 482.799 216.506 482.799 217.123C482.799 217.741 482.298 218.241 481.681 218.241C481.063 218.241 480.563 217.741 480.563 217.123Z" fill="white" fill-opacity="0.1"/>
<path d="M273.899 392.346C274.906 391.9 276.084 392.355 276.53 393.362C276.976 394.369 276.52 395.546 275.513 395.992C274.506 396.437 273.328 395.983 272.882 394.976C272.436 393.969 272.891 392.792 273.899 392.346Z" fill="white" fill-opacity="0.15"/>
<path d="M428.071 375.674C428.071 374.573 428.964 373.681 430.065 373.681C431.167 373.681 432.06 374.573 432.06 375.674C432.06 376.775 431.167 377.668 430.065 377.668C428.964 377.668 428.071 376.775 428.071 375.674Z" fill="white" fill-opacity="0.15"/>
<path d="M279.954 327.287C280.733 326.508 281.996 326.508 282.775 327.287C283.554 328.065 283.554 329.328 282.775 330.106C281.996 330.885 280.733 330.885 279.954 330.106C279.175 329.328 279.175 328.065 279.954 327.287Z" fill="white" fill-opacity="0.15"/>
<path d="M305.167 376.55C305.167 375.933 305.667 375.433 306.285 375.433C306.902 375.433 307.403 375.933 307.403 376.55C307.403 377.168 306.902 377.668 306.285 377.668C305.667 377.668 305.167 377.168 305.167 376.55Z" fill="white" fill-opacity="0.15"/>
<path d="M398.382 260.031C398.382 259.414 398.883 258.913 399.5 258.913C400.118 258.913 400.618 259.414 400.618 260.031C400.618 260.648 400.118 261.148 399.5 261.148C398.883 261.148 398.382 260.648 398.382 260.031Z" fill="white" fill-opacity="0.15"/>
<path d="M460.881 334.328C461.032 335.536 461.153 335.657 462.392 335.838C461.183 335.989 461.062 336.11 460.881 337.348C460.73 336.14 460.609 336.019 459.37 335.838C460.579 335.687 460.7 335.536 460.881 334.328Z" fill="white" fill-opacity="0.1"/>
<path d="M355.521 382.417C355.672 383.625 355.793 383.746 357.032 383.927C355.823 384.078 355.702 384.199 355.521 385.437C355.37 384.229 355.249 384.108 354.01 383.927C355.219 383.776 355.339 383.625 355.521 382.417Z" fill="white" fill-opacity="0.1"/>
<path d="M432.091 256.28C432.242 257.488 432.363 257.609 433.602 257.79C432.393 257.941 432.272 258.062 432.091 259.3C431.94 258.092 431.819 257.971 430.58 257.79C431.788 257.639 431.909 257.488 432.091 256.28Z" fill="white" fill-opacity="0.1"/>
<path d="M499.783 371.319C499.934 372.528 500.055 372.648 501.294 372.83C500.085 372.981 499.964 373.102 499.783 374.34C499.632 373.132 499.511 373.011 498.272 372.83C499.481 372.679 499.602 372.528 499.783 371.319Z" fill="white" fill-opacity="0.1"/>
<path d="M591.659 605.202C591.81 603.994 591.931 603.873 593.17 603.692C591.961 603.54 591.84 603.42 591.659 602.181C591.508 603.39 591.387 603.51 590.148 603.692C591.357 603.843 591.477 603.994 591.659 605.202Z" fill="white" fill-opacity="0.1"/>
<path d="M675.303 747.362C675.454 746.154 675.574 746.033 676.813 745.852C675.605 745.701 675.484 745.58 675.303 744.342C675.151 745.55 675.031 745.67 673.792 745.852C675 746.003 675.121 746.154 675.303 747.362Z" fill="white" fill-opacity="0.1"/>
<path d="M579.063 739.025C579.214 737.816 579.335 737.696 580.574 737.514C579.365 737.363 579.244 737.242 579.063 736.004C578.912 737.212 578.791 737.333 577.552 737.514C578.761 737.665 578.882 737.816 579.063 739.025Z" fill="white" fill-opacity="0.1"/>
<path d="M414.231 647.139C414.382 645.931 414.503 645.81 415.742 645.629C414.533 645.478 414.413 645.357 414.231 644.119C414.08 645.327 413.959 645.448 412.72 645.629C413.929 645.78 414.05 645.931 414.231 647.139Z" fill="white" fill-opacity="0.1"/>
<path d="M502.944 551.196C503.095 549.988 503.216 549.867 504.455 549.686C503.246 549.534 503.125 549.414 502.944 548.175C502.793 549.383 502.672 549.504 501.433 549.686C502.642 549.836 502.763 549.988 502.944 551.196Z" fill="white" fill-opacity="0.1"/>
<path d="M522.153 597.203C522.153 597.82 522.653 598.32 523.271 598.32C523.888 598.32 524.389 597.82 524.389 597.203C524.389 596.586 523.888 596.085 523.271 596.085C522.653 596.085 522.153 596.586 522.153 597.203Z" fill="white" fill-opacity="0.1"/>
<path d="M356.061 705.068C356.061 705.685 356.561 706.185 357.179 706.185C357.797 706.185 358.297 705.685 358.297 705.068C358.297 704.45 357.797 703.95 357.179 703.95C356.561 703.95 356.061 704.45 356.061 705.068Z" fill="white" fill-opacity="0.1"/>
<path d="M612.774 629.607C612.774 630.224 613.274 630.725 613.892 630.725C614.509 630.725 615.01 630.224 615.01 629.607C615.01 628.99 614.509 628.49 613.892 628.49C613.274 628.49 612.774 628.99 612.774 629.607Z" fill="white" fill-opacity="0.1"/>
<path d="M401.595 547.118C401.595 547.735 402.095 548.235 402.713 548.235C403.33 548.235 403.831 547.735 403.831 547.118C403.831 546.5 403.33 546 402.713 546C402.095 546 401.595 546.5 401.595 547.118Z" fill="white" fill-opacity="0.1"/>
<path d="M639.407 672.886C639.407 673.503 639.907 674.003 640.525 674.003C641.142 674.003 641.643 673.503 641.643 672.886C641.643 672.269 641.142 671.768 640.525 671.768C639.907 671.768 639.407 672.269 639.407 672.886Z" fill="white" fill-opacity="0.1"/>
<path d="M604.618 762.133C604.618 762.751 605.118 763.251 605.736 763.251C606.353 763.251 606.854 762.751 606.854 762.133C606.854 761.516 606.353 761.016 605.736 761.016C605.118 761.016 604.618 761.516 604.618 762.133Z" fill="white" fill-opacity="0.1"/>
<path d="M584.599 653.651C584.599 654.268 585.1 654.769 585.717 654.769C586.335 654.769 586.835 654.268 586.835 653.651C586.835 653.034 586.335 652.534 585.717 652.534C585.1 652.534 584.599 653.034 584.599 653.651Z" fill="white" fill-opacity="0.1"/>
<path d="M600.275 697.136C601.282 697.582 602.46 697.127 602.906 696.12C603.352 695.114 602.897 693.936 601.89 693.49C600.882 693.045 599.704 693.5 599.258 694.506C598.813 695.513 599.268 696.69 600.275 697.136Z" fill="white" fill-opacity="0.15"/>
<path d="M453.571 691.59C453.571 692.691 454.464 693.584 455.565 693.584C456.667 693.584 457.56 692.691 457.56 691.59C457.56 690.489 456.667 689.597 455.565 689.597C454.464 689.597 453.571 690.489 453.571 691.59Z" fill="white" fill-opacity="0.15"/>
<path d="M519.711 658.624C520.49 659.402 521.752 659.402 522.531 658.624C523.31 657.845 523.31 656.583 522.531 655.805C521.752 655.026 520.49 655.026 519.711 655.805C518.932 656.583 518.932 657.845 519.711 658.624Z" fill="white" fill-opacity="0.15"/>
<path d="M591.627 555.997C591.627 556.614 592.128 557.114 592.745 557.114C593.363 557.114 593.864 556.614 593.864 555.997C593.864 555.38 593.363 554.879 592.745 554.879C592.128 554.879 591.627 555.38 591.627 555.997Z" fill="white" fill-opacity="0.15"/>
<path d="M469.251 587.068C469.251 587.685 469.752 588.186 470.369 588.186C470.987 588.186 471.488 587.685 471.488 587.068C471.488 586.451 470.987 585.95 470.369 585.95C469.752 585.95 469.251 586.451 469.251 587.068Z" fill="white" fill-opacity="0.15"/>
<path d="M457.674 761.06C457.825 759.852 457.946 759.732 459.185 759.55C457.976 759.399 457.855 759.278 457.674 758.04C457.523 759.248 457.402 759.369 456.163 759.55C457.372 759.701 457.493 759.852 457.674 761.06Z" fill="white" fill-opacity="0.1"/>
<path d="M370.149 618.148C370.3 616.94 370.421 616.819 371.66 616.638C370.451 616.487 370.33 616.366 370.149 615.127C369.998 616.336 369.877 616.456 368.638 616.638C369.847 616.789 369.967 616.94 370.149 618.148Z" fill="white" fill-opacity="0.1"/>
<path d="M314.511 670.768C314.662 669.56 314.782 669.439 316.021 669.258C314.813 669.107 314.692 668.986 314.511 667.748C314.359 668.956 314.239 669.077 313 669.258C314.208 669.409 314.329 669.56 314.511 670.768Z" fill="white" fill-opacity="0.1"/>
<path d="M400.3 782.957C400.451 784.165 400.572 784.286 401.811 784.467C400.603 784.618 400.482 784.739 400.3 785.977C400.149 784.769 400.028 784.648 398.789 784.467C399.998 784.316 400.119 784.165 400.3 782.957Z" fill="white" fill-opacity="0.1"/>
<path d="M304.061 791.294C304.212 792.502 304.333 792.623 305.572 792.804C304.363 792.956 304.242 793.076 304.061 794.315C303.909 793.107 303.789 792.986 302.55 792.804C303.758 792.654 303.879 792.502 304.061 791.294Z" fill="white" fill-opacity="0.1"/>
<path d="M104.764 725C104.915 726.208 105.036 726.329 106.275 726.51C105.066 726.661 104.945 726.782 104.764 728.021C104.613 726.812 104.492 726.692 103.253 726.51C104.462 726.359 104.583 726.208 104.764 725Z" fill="white" fill-opacity="0.1"/>
<path d="M81.0588 825.251C81.0588 824.634 81.5593 824.134 82.1769 824.134C82.7945 824.134 83.2949 824.634 83.2949 825.251C83.2949 825.869 82.7945 826.369 82.1769 826.369C81.5593 826.369 81.0588 825.869 81.0588 825.251Z" fill="white" fill-opacity="0.1"/>
<path d="M337.771 900.712C337.771 900.094 338.272 899.594 338.89 899.594C339.507 899.594 340.008 900.094 340.008 900.712C340.008 901.329 339.507 901.829 338.89 901.829C338.272 901.829 337.771 901.329 337.771 900.712Z" fill="white" fill-opacity="0.1"/>
<path d="M364.404 857.433C364.404 856.816 364.905 856.315 365.523 856.315C366.14 856.315 366.641 856.816 366.641 857.433C366.641 858.05 366.14 858.551 365.523 858.551C364.905 858.551 364.404 858.05 364.404 857.433Z" fill="white" fill-opacity="0.1"/>
<path d="M329.616 768.185C329.616 767.568 330.116 767.068 330.734 767.068C331.351 767.068 331.852 767.568 331.852 768.185C331.852 768.803 331.351 769.303 330.734 769.303C330.116 769.303 329.616 768.803 329.616 768.185Z" fill="white" fill-opacity="0.1"/>
<path d="M309.597 876.668C309.597 876.051 310.098 875.55 310.715 875.55C311.333 875.55 311.833 876.051 311.833 876.668C311.833 877.285 311.333 877.785 310.715 877.785C310.098 877.785 309.597 877.285 309.597 876.668Z" fill="white" fill-opacity="0.1"/>
<path d="M325.273 833.183C326.28 832.737 327.458 833.192 327.904 834.199C328.35 835.205 327.895 836.383 326.887 836.828C325.88 837.274 324.702 836.819 324.256 835.812C323.81 834.806 324.266 833.628 325.273 833.183Z" fill="white" fill-opacity="0.15"/>
<path d="M178.569 838.728C178.569 837.627 179.462 836.735 180.563 836.735C181.665 836.735 182.558 837.627 182.558 838.728C182.558 839.829 181.665 840.722 180.563 840.722C179.462 840.722 178.569 839.829 178.569 838.728Z" fill="white" fill-opacity="0.15"/>
<path d="M244.708 871.695C245.487 870.917 246.75 870.917 247.529 871.695C248.308 872.474 248.308 873.736 247.529 874.514C246.75 875.293 245.487 875.293 244.708 874.514C243.929 873.736 243.929 872.474 244.708 871.695Z" fill="white" fill-opacity="0.15"/>
<path d="M182.672 769.258C182.823 770.467 182.944 770.587 184.183 770.769C182.974 770.92 182.853 771.041 182.672 772.279C182.521 771.071 182.4 770.95 181.161 770.769C182.369 770.618 182.49 770.467 182.672 769.258Z" fill="white" fill-opacity="0.1"/>
<path d="M41.5105 759.031C41.6616 760.239 41.7825 760.36 43.0215 760.541C41.8127 760.692 41.6918 760.813 41.5105 762.052C41.3594 760.843 41.2385 760.723 39.9996 760.541C41.2083 760.39 41.3292 760.239 41.5105 759.031Z" fill="white" fill-opacity="0.1"/>
</svg>
